<svg width="140" height="218" viewBox="0 0 140 218" fill="none" xmlns="http://www.w3.org/2000/svg">
<path d="M32.0009 53.1104L38.9839 61.8669L37.6454 62.9343L30.6624 54.1778L32.0009 53.1104Z" fill="white"/>
<path d="M47.5741 51.8441L44.5399 45.5803L45.9238 44.9138L50.7833 55.0047L49.1111 55.81L44.2631 49.7625L47.5542 56.5597L46.1703 57.2262L41.3108 47.1353L43.1127 46.2675L47.5741 51.8441Z" fill="white"/>
<path d="M55.5562 41.7306L59.1908 40.901L59.5361 42.4141L57.5706 42.8627L58.2898 46.0137L60.1773 45.5829L60.5226 47.096L58.6352 47.5268L59.7175 52.2688L58.0485 52.6498L55.5562 41.7306Z" fill="white"/>
<path d="M74.4309 48.016C74.4309 49.4027 73.7376 50.096 72.3509 50.096H71.4389C70.0522 50.096 69.3589 49.4027 69.3589 48.016V40.784C69.3589 39.3973 70.0522 38.704 71.4389 38.704H72.3509C73.7376 38.704 74.4309 39.3973 74.4309 40.784V48.016ZM72.7189 40.864C72.7189 40.4267 72.5056 40.208 72.0789 40.208H71.7269C71.2896 40.208 71.0709 40.4267 71.0709 40.864V47.936C71.0709 48.3733 71.2896 48.592 71.7269 48.592H72.0789C72.5056 48.592 72.7189 48.3733 72.7189 47.936V40.864Z" fill="white"/>
<path d="M85.8723 47.0657C86.1769 47.4088 86.3648 47.7361 86.4359 48.0478C86.5198 48.3514 86.5107 48.7268 86.4086 49.1739L86.0027 50.9522C85.6942 52.3041 84.864 52.8258 83.5121 52.5172L82.7789 52.3499C81.4374 52.0437 80.9198 51.2198 81.2259 49.8783L81.7529 47.5697L83.3751 47.94L82.8625 50.1862C82.7675 50.6022 82.9332 50.8588 83.3596 50.9561L83.578 51.006C84.0044 51.1033 84.265 50.944 84.36 50.528L84.7017 49.0305C84.7848 48.6665 84.6965 48.3346 84.4367 48.0346L83.0333 46.4177C82.7287 46.0747 82.5356 45.7462 82.4541 45.4321C82.383 45.1205 82.3973 44.7463 82.497 44.3095L82.8388 42.8121C83.1473 41.4602 83.9776 40.9385 85.3295 41.247L86.0314 41.4073C87.3729 41.7135 87.8906 42.5373 87.5844 43.8788L87.1322 45.8598L85.4943 45.486L85.9323 43.5674C86.0272 43.1514 85.8667 42.8959 85.4507 42.801L85.2479 42.7547C84.832 42.6598 84.5765 42.8203 84.4816 43.2362L84.2039 44.453C84.1184 44.8273 84.2068 45.1593 84.4689 45.4489L85.8723 47.0657Z" fill="white"/>
<path d="M97.2809 50.4645L100.237 46.6493L101.722 47.3644L96.9054 53.1251L95.2046 56.6569L93.6621 55.9141L95.3282 52.4543L96.8638 45.0249L98.4495 45.7885L97.2809 50.4645Z" fill="white"/>
<path d="M109.285 59.0709C109.41 59.5121 109.437 59.8886 109.366 60.2002C109.31 60.5101 109.139 60.8444 108.853 61.203L107.716 62.6291C106.851 63.7132 105.877 63.823 104.793 62.9584L104.205 62.4896C103.129 61.6316 103.02 60.6648 103.878 59.589L105.354 57.7376L106.655 58.7751L105.219 60.5764C104.953 60.91 104.991 61.2131 105.333 61.4858L105.508 61.6255C105.85 61.8981 106.154 61.8677 106.42 61.5341L107.377 60.3332C107.61 60.0413 107.675 59.7039 107.571 59.3209L107.008 57.2553C106.882 56.814 106.851 56.4343 106.914 56.116C106.985 55.8044 107.16 55.4734 107.439 55.1232L108.397 53.9223C109.262 52.8381 110.236 52.7283 111.32 53.5929L111.883 54.0418C112.959 54.8997 113.068 55.8666 112.21 56.9424L110.943 58.5311L109.629 57.4836L110.856 55.945C111.122 55.6114 111.089 55.3116 110.755 55.0456L110.592 54.9159C110.259 54.6499 109.959 54.6837 109.693 55.0172L108.915 55.993C108.676 56.2932 108.611 56.6306 108.722 57.0053L109.285 59.0709Z" fill="white"/>
<path d="M122.929 118.975L128.823 120.014C128.828 120.399 128.796 120.895 128.686 121.516C128.552 122.278 128.276 122.805 127.895 123.104C127.553 123.381 127.083 123.509 126.56 123.417C126.019 123.321 125.622 123.087 125.366 122.722C125.004 122.237 124.9 121.534 125.033 120.78C125.073 120.55 125.12 120.339 125.195 120.169L122.793 119.746L122.929 118.975ZM128.138 120.688L125.824 120.28C125.75 120.441 125.695 120.65 125.65 120.907C125.486 121.838 125.838 122.485 126.653 122.629C127.442 122.768 127.922 122.277 128.072 121.426C128.131 121.089 128.15 120.827 128.138 120.688Z" fill="white"/>
<path d="M126.678 129.667L126.407 130.411L123.024 129.18C121.756 128.718 121.008 129.088 120.731 129.849C120.426 130.687 120.785 131.439 122.036 131.895L125.419 133.126L125.148 133.871L121.816 132.658C120.065 132.021 119.691 130.84 120.14 129.605C120.565 128.438 121.545 127.799 123.321 128.445L126.678 129.667Z" fill="white"/>
<path d="M117.127 136.668L122.303 139.656C122.175 140.039 121.933 140.565 121.668 141.025C121.249 141.75 120.835 142.144 120.35 142.301C119.975 142.427 119.526 142.376 119.113 142.138C118.427 141.742 118.224 141.032 118.352 140.378L118.329 140.365C117.959 140.681 117.445 140.707 116.823 140.524C115.991 140.273 115.413 140.105 115.152 140.089L115.557 139.388C115.762 139.392 116.274 139.532 117.01 139.77C117.824 140.032 118.264 139.901 118.643 139.299L119.012 138.66L116.736 137.346L117.127 136.668ZM121.436 140.059L119.526 138.957L119.126 139.651C118.707 140.375 118.839 141.065 119.439 141.411C120.117 141.803 120.697 141.483 121.111 140.766C121.3 140.438 121.399 140.194 121.436 140.059Z" fill="white"/>
<path d="M111.994 144.52L116.579 148.367C116.391 148.703 116.114 149.117 115.709 149.6C115.212 150.193 114.709 150.511 114.23 150.579C113.795 150.649 113.324 150.524 112.918 150.183C112.497 149.83 112.27 149.428 112.231 148.984C112.16 148.384 112.421 147.722 112.913 147.136C113.063 146.957 113.209 146.797 113.359 146.688L111.491 145.12L111.994 144.52ZM115.648 148.609L113.849 147.099C113.704 147.201 113.552 147.355 113.384 147.555C112.776 148.278 112.758 149.015 113.392 149.547C114.006 150.062 114.667 149.876 115.222 149.214C115.442 148.952 115.589 148.735 115.648 148.609Z" fill="white"/>
<path d="M103.947 152.601L103.954 152.595C105.188 151.56 106.841 151.794 108.021 153.2C109.259 154.676 109.159 156.405 107.918 157.446C106.643 158.516 105.007 158.233 103.85 156.854C102.513 155.261 102.768 153.59 103.947 152.601ZM104.337 153.108L104.33 153.114C103.379 153.912 103.576 155.239 104.461 156.294C105.236 157.218 106.529 157.778 107.528 156.939C108.528 156.1 108.243 154.753 107.399 153.746C106.577 152.767 105.282 152.315 104.337 153.108Z" fill="white"/>
<path d="M98.3667 157.158L98.5115 157.823C98.0995 157.811 97.5775 157.915 97.1099 158.185C96.4162 158.586 96.2179 159.178 96.5239 159.708C96.8074 160.199 97.2545 160.326 98.1167 160.181C99.1451 159.982 99.9361 160.128 100.359 160.861C100.832 161.68 100.504 162.679 99.4835 163.268C98.9535 163.574 98.484 163.679 98.1859 163.685L98.049 163.016C98.2712 163.023 98.7074 162.968 99.1829 162.694C99.8999 162.28 99.9252 161.694 99.7182 161.335C99.4392 160.852 98.9802 160.795 98.0933 160.933C97.0023 161.095 96.315 160.93 95.8695 160.159C95.406 159.356 95.5888 158.305 96.8281 157.589C97.3348 157.297 97.9781 157.133 98.3667 157.158Z" fill="white"/>
<path d="M87.4594 165.725L87.2378 165.116L89.4451 164.313L88.6971 162.258L86.2276 163.157L86.0029 162.539L89.2167 161.37L91.2914 167.07L88.2045 168.193L87.9798 167.576L90.3224 166.723L89.6668 164.922L87.4594 165.725Z" fill="white"/>
<path d="M71.8349 166.306L71.6279 166.954C71.2769 166.738 70.7729 166.567 70.2329 166.567C69.4319 166.567 68.9639 166.981 68.9639 167.593C68.9639 168.16 69.2879 168.493 70.1069 168.799C71.0969 169.141 71.7089 169.663 71.7089 170.509C71.7089 171.454 70.9259 172.156 69.7469 172.156C69.1349 172.156 68.6759 172.012 68.4149 171.868L68.6309 171.22C68.8199 171.337 69.2249 171.508 69.7739 171.508C70.6019 171.508 70.9169 171.013 70.9169 170.599C70.9169 170.041 70.5479 169.762 69.7109 169.438C68.6849 169.033 68.1719 168.547 68.1719 167.656C68.1719 166.729 68.8559 165.91 70.2869 165.91C70.8719 165.91 71.5109 166.09 71.8349 166.306Z" fill="white"/>
<path d="M60.867 164.254L59.9293 169.572L61.7462 169.892L61.6306 170.548L57.2078 169.768L57.3235 169.112L59.1493 169.434L60.087 164.116L60.867 164.254Z" fill="white"/>
<path d="M49.7889 163.198L51.8102 163.933L53.0548 162.356L53.8159 162.633L49.8045 167.628L48.9165 167.305L49.046 160.897L49.8326 161.183L49.7889 163.198ZM51.4486 164.453L49.7318 163.828L49.7013 165.675C49.6842 166.09 49.6457 166.459 49.6102 166.82L49.6356 166.829C49.8317 166.527 50.0541 166.206 50.2902 165.899L51.4486 164.453Z" fill="white"/>
<path d="M43.3079 158.012L40.6079 162.689L42.2057 163.611L41.8727 164.188L37.9834 161.942L38.3164 161.366L39.922 162.293L42.622 157.616L43.3079 158.012Z" fill="white"/>
<path d="M31.5252 153.838L31.9417 153.342L33.7411 154.852L35.1469 153.177L33.1337 151.487L33.556 150.984L36.1759 153.182L32.2768 157.829L29.7603 155.718L30.1826 155.214L32.0924 156.817L33.3246 155.348L31.5252 153.838Z" fill="white"/>
<path d="M26.9378 143.753L24.9896 145.575C24.3774 146.148 23.6192 146.854 23.047 147.335L23.0586 147.348C23.7352 147.063 24.4843 146.751 25.3153 146.453L28.2582 145.382L28.64 145.837L27.0632 148.452C26.5934 149.223 26.144 149.905 25.7024 150.499L25.7139 150.513C26.3046 150.041 27.1126 149.421 27.8437 148.878L29.9403 147.331L30.4204 147.903L25.5017 151.478L24.8596 150.713L26.4419 148.034C26.8521 147.361 27.2419 146.775 27.6204 146.246L27.6088 146.232C27.0359 146.502 26.38 146.77 25.6204 147.055L22.6786 148.114L22.0364 147.348L26.4403 143.16L26.9378 143.753Z" fill="white"/>
<path d="M19.2985 138.19L19.8596 137.866L21.0341 139.9L22.9281 138.806L21.6141 136.531L22.1831 136.202L23.8931 139.164L18.6398 142.197L16.9973 139.352L17.5663 139.023L18.8128 141.182L20.473 140.224L19.2985 138.19Z" fill="white"/>
<path d="M19.7597 130.768L20.0122 131.462L14.312 133.537L14.0165 132.725L16.2386 129.857C16.7559 129.199 17.2332 128.642 17.7213 128.168L17.7036 128.145C16.9671 128.49 16.2798 128.759 15.4002 129.08L13.0068 129.951L12.7544 129.257L18.4546 127.183L18.7255 127.927L16.4918 130.789C16.0022 131.418 15.4895 132.035 14.9737 132.539L14.9914 132.561C15.6949 132.257 16.3769 132 17.3241 131.655L19.7597 130.768Z" fill="white"/>
<path d="M17.0168 121.056L11.6988 121.994L12.0192 123.811L11.3633 123.926L10.5835 119.503L11.2394 119.388L11.5613 121.214L16.8793 120.276L17.0168 121.056Z" fill="white"/>
<path d="M70 159C98.1665 159 121 136.167 121 108C121 79.8335 98.1665 57 70 57C41.8335 57 19 79.8335 19 108C19 136.167 41.8335 159 70 159Z" fill="#34B0F7"/>
<path d="M69.9999 155.712C96.3502 155.712 117.711 134.351 117.711 108C117.711 81.6502 96.3502 60.2891 69.9999 60.2891C43.6497 60.2891 22.2886 81.6502 22.2886 108C22.2886 134.351 43.6497 155.712 69.9999 155.712Z" stroke="#04334E" stroke-miterlimit="10"/>
<path d="M69.9007 63.125L67.1372 65.8885L69.8655 68.6168L72.6198 65.8609L69.9007 63.125Z" fill="#04334E"/>
<path d="M63.6495 63.5742L61.2979 66.696L64.3783 69.017L66.7238 65.906L63.6495 63.5742Z" fill="white"/>
<path d="M57.5208 64.8945L55.627 68.3118L59.0013 70.1827L60.8891 66.7746L57.5208 64.8945Z" fill="#04334E"/>
<path d="M51.6367 67.0508L50.2358 70.6992L53.8368 72.0817L55.2331 68.444L51.6367 67.0508Z" fill="white"/>
<path d="M46.1083 70.0078L45.2295 73.8155L48.9882 74.6836L49.8654 70.8866L46.1083 70.0078Z" fill="#04334E"/>
<path d="M41.047 73.7031L40.7056 77.5965L44.5484 77.9318L44.8883 74.0507L41.047 73.7031Z" fill="#04334E"/>
<path d="M36.5469 78.0648L36.752 81.969L40.6041 81.7669L40.4005 77.875L36.5469 78.0648Z" fill="white"/>
<path d="M32.6997 83.0132L33.4453 86.85L37.2331 86.1136L36.489 82.2891L32.6997 83.0132Z" fill="#04334E"/>
<path d="M29.5796 88.4478L30.8519 92.1437L34.4988 90.8883L33.2296 87.2031L29.5796 88.4478Z" fill="white"/>
<path d="M27.2446 94.2681L29.0191 97.7497L32.4547 95.9982L30.6864 92.5273L27.2446 94.2681Z" fill="#04334E"/>
<path d="M25.7412 100.352L27.9842 103.553L31.1427 101.341L28.9089 98.1484L25.7412 100.352Z" fill="white"/>
<path d="M25.1011 106.587L27.7666 109.446L30.5867 106.814L27.9304 103.965L25.1011 106.587Z" fill="#04334E"/>
<path d="M25.334 112.849L28.3715 115.308L30.7982 112.311L27.7714 109.859L25.334 112.849Z" fill="white"/>
<path d="M26.436 119.02L29.7859 121.033L31.7732 117.726L28.4325 115.719L26.436 119.02Z" fill="#04334E"/>
<path d="M28.3867 124.976L31.9846 126.504L33.4912 122.953L29.9055 121.43L28.3867 124.976Z" fill="white"/>
<path d="M31.147 130.602L34.9225 131.614L35.9207 127.888L32.1575 126.879L31.147 130.602Z" fill="#04334E"/>
<path d="M34.6641 135.792L38.5437 136.269L39.0137 132.439L35.1463 131.965L34.6641 135.792Z" fill="white"/>
<path d="M38.8696 140.441L42.7768 140.372L42.7094 136.516L38.813 136.583L38.8696 140.441Z" fill="#04334E"/>
<path d="M43.6804 144.457L47.5401 143.846L46.9369 140.035L43.0879 140.645L43.6804 144.457Z" fill="white"/>
<path d="M49.0034 147.769L52.7406 146.626L51.6123 142.938L47.8857 144.077L49.0034 147.769Z" fill="#04334E"/>
<path d="M54.734 150.304L58.2768 148.652L56.6463 145.156L53.1157 146.802L54.734 150.304Z" fill="white"/>
<path d="M60.7633 152.016L64.0412 149.887L61.9406 146.652L58.6719 148.774L60.7633 152.016Z" fill="#04334E"/>
<path d="M66.9733 152.877L69.9221 150.313L67.3913 147.402L64.4502 149.958L66.9733 152.877Z" fill="white"/>
<path d="M73.2413 152.86L75.8042 149.91L72.8937 147.379L70.3369 150.32L73.2413 152.86Z" fill="#04334E"/>
<path d="M79.4448 151.975L81.5744 148.698L78.3394 146.598L76.2158 149.865L79.4448 151.975Z" fill="white"/>
<path d="M85.4663 150.234L87.1183 146.693L83.6214 145.062L81.9756 148.593L85.4663 150.234Z" fill="#04334E"/>
<path d="M91.1862 147.669L92.3283 143.932L88.6401 142.805L87.501 146.53L91.1862 147.669Z" fill="white"/>
<path d="M96.4942 144.338L97.1051 140.478L93.2959 139.875L92.6865 143.722L96.4942 144.338Z" fill="#04334E"/>
<path d="M101.286 140.299L101.355 136.392L97.4986 136.324L97.4297 140.221L101.286 140.299Z" fill="white"/>
<path d="M105.469 135.63L104.993 131.75L101.166 132.22L101.64 136.087L105.469 135.63Z" fill="#04334E"/>
<path d="M108.963 130.426L107.951 126.652L104.226 127.651L105.233 131.414L108.963 130.426Z" fill="white"/>
<path d="M111.697 124.785L110.171 121.188L106.621 122.694L108.142 126.281L111.697 124.785Z" fill="#04334E"/>
<path d="M113.621 118.819L111.609 115.469L108.302 117.456L110.309 120.795L113.621 118.819Z" fill="white"/>
<path d="M114.695 112.647L112.237 109.609L109.239 112.038L111.69 115.066L114.695 112.647Z" fill="#04334E"/>
<path d="M114.899 106.38L112.042 103.715L109.41 106.537L112.261 109.194L114.899 106.38Z" fill="white"/>
<path d="M114.23 100.148L111.028 97.9062L108.816 101.065L112.008 103.3L114.23 100.148Z" fill="#04334E"/>
<path d="M112.7 94.0713L109.217 92.2969L107.466 95.734L110.938 97.5024L112.7 94.0713Z" fill="white"/>
<path d="M110.338 88.2645L106.644 86.9922L105.388 90.6406L109.072 91.9083L110.338 88.2645Z" fill="#04334E"/>
<path d="M107.192 82.8433L103.357 82.0977L102.62 85.8839L106.445 86.6264L107.192 82.8433Z" fill="white"/>
<path d="M103.321 77.9107L99.4188 77.707L99.2183 81.5591L103.109 81.7627L103.321 77.9107Z" fill="#04334E"/>
<path d="M98.8031 73.5703L94.9097 73.9117L95.2465 77.7546L99.1276 77.4147L98.8031 73.5703Z" fill="white"/>
<path d="M93.7232 69.8984L89.9155 70.7772L90.7836 74.5359L94.5806 73.6586L93.7232 69.8984Z" fill="#04334E"/>
<path d="M88.1826 66.9688L84.5342 68.3696L85.9167 71.9706L89.5544 70.5743L88.1826 66.9688Z" fill="white"/>
<path d="M82.2879 64.8359L78.8706 66.7298L80.74 70.1042L84.1481 68.2149L82.2879 64.8359Z" fill="#04334E"/>
<path d="M76.1545 63.5469L73.0327 65.8985L75.3537 68.979L78.4663 66.6334L76.1545 63.5469Z" fill="white"/>
<g style="mix-blend-mode:screen" opacity="0.4">
<path d="M107.268 103.923L104.229 101.794L106.343 98.7752L103.038 97.0911L104.711 93.8055L101.204 92.5976L102.404 89.1114L98.7633 88.4041L99.466 84.7847L95.761 84.5903L95.9554 80.9082L92.2595 81.2327L91.938 77.5598L88.3232 78.3942L87.4934 74.8009L84.0302 76.1314L82.709 72.6896L79.4647 74.487L77.6765 71.2627L74.7139 73.4949L72.4955 70.5508L69.8728 73.1734L67.2655 70.5676L65.0333 73.5302L62.0876 71.3117L60.2901 74.5559L57.0658 72.7677L55.7353 76.2309L52.2936 74.9096L51.4592 78.5244L47.8674 77.6961L47.5428 81.392L43.8699 81.0705L44.0643 84.774L40.3822 84.9669L41.0911 88.6092L37.4717 89.312L38.6797 92.8196L35.1936 94.0199L36.8777 97.3254L33.5921 99.0003L35.7202 102.039L32.6995 104.154L35.2303 106.867L32.5342 109.381L35.4171 111.715L33.0961 114.582L36.276 116.491L34.3775 119.652L37.7933 121.101L36.3526 124.495L39.9352 125.455L38.9813 129.016L42.6634 129.469L42.2133 133.128L45.923 133.063L45.9873 136.749L49.651 136.169L50.2282 139.811L53.7756 138.726L54.8535 142.252L58.2156 140.684L59.7742 144.025L62.8852 142.005L64.8939 145.096L67.6927 142.664L70.1117 145.446L72.546 142.647L75.3279 145.064L77.3488 141.953L80.4415 143.962L82.0093 140.6L85.35 142.157L86.4355 138.609L89.9599 139.687L90.5402 136.024L94.1825 136.601L94.2468 132.891L97.9335 132.955L97.4818 129.273L101.141 128.825L100.181 125.241L103.742 124.287L102.292 120.871L105.687 119.432L103.776 116.252L106.936 114.352L104.601 111.469L107.466 109.149L104.753 106.619L107.268 103.923Z" fill="#34B0F7"/>
</g>
<path d="M70.0002 128.583C81.3688 128.583 90.5848 119.367 90.5848 107.999C90.5848 96.6301 81.3688 87.4141 70.0002 87.4141C58.6316 87.4141 49.4155 96.6301 49.4155 107.999C49.4155 119.367 58.6316 128.583 70.0002 128.583Z" fill="#04334E"/>
<path d="M60.4727 108.001C60.4727 108.001 63.9374 102.41 70.0002 102.41C76.0631 102.41 79.5278 108.001 79.5278 108.001C79.5278 108.001 76.0631 113.593 70.0002 113.593C63.9374 113.593 60.4727 108.001 60.4727 108.001Z" fill="white"/>
<path d="M69.9998 111.261C71.8 111.261 73.2593 109.802 73.2593 108.002C73.2593 106.202 71.8 104.742 69.9998 104.742C68.1996 104.742 66.7402 106.202 66.7402 108.002C66.7402 109.802 68.1996 111.261 69.9998 111.261Z" fill="#04334E"/>
<path d="M69.1611 86.9181L70.1563 76.8516L71.1515 86.9181H69.1611Z" fill="white"/>
<path d="M62.0357 88.4407L59.5278 78.6406L63.905 87.7594L62.0357 88.4407Z" fill="white"/>
<path d="M55.8581 92.3088L50.1504 83.957L57.383 91.0288L55.8581 92.3088Z" fill="white"/>
<path d="M51.3783 98.0561L43.1582 92.1602L52.3734 96.3322L51.3783 98.0561Z" fill="white"/>
<path d="M49.132 104.99L39.3916 102.262L49.478 103.03L49.132 104.99Z" fill="white"/>
<path d="M49.394 112.272L39.3076 113.041L49.0495 110.312L49.394 112.272Z" fill="white"/>
<path d="M52.1313 119.025L42.916 123.195L51.1361 117.301L52.1313 119.025Z" fill="white"/>
<path d="M57.0124 124.436L49.7798 131.508L55.4875 123.156L57.0124 124.436Z" fill="white"/>
<path d="M63.4504 127.853L59.0732 136.972L61.5811 127.172L63.4504 127.853Z" fill="white"/>
<path d="M70.6676 128.859L69.6724 138.926L68.6772 128.859H70.6676Z" fill="white"/>
<path d="M77.7947 127.336L80.3025 137.136L75.9253 128.017L77.7947 127.336Z" fill="white"/>
<path d="M83.9706 123.469L89.6798 131.82L82.4473 124.749L83.9706 123.469Z" fill="white"/>
<path d="M88.4517 117.723L96.6718 123.619L87.4565 119.447L88.4517 117.723Z" fill="white"/>
<path d="M90.6965 110.789L100.438 113.517L90.3521 112.749L90.6965 110.789Z" fill="white"/>
<path d="M90.436 103.507L100.522 102.738L90.7805 105.467L90.436 103.507Z" fill="white"/>
<path d="M87.6987 96.7502L96.914 92.5781L88.6939 98.4726L87.6987 96.7502Z" fill="white"/>
<path d="M82.8179 91.3413L90.0504 84.2695L84.3412 92.6197L82.8179 91.3413Z" fill="white"/>
<path d="M76.3799 87.9235L80.7571 78.8047L78.2493 88.6048L76.3799 87.9235Z" fill="white"/>
<path d="M133.23 205.5C134.05 205.5 134.82 205.72 135.5 206.07V11.48C134.66 12.11 133.63 12.5 132.5 12.5C129.74 12.5 127.5 10.26 127.5 7.5C127.5 6.37 127.89 5.34 128.52 4.5H11.48C12.11 5.34 12.5 6.37 12.5 7.5C12.5 10.26 10.26 12.5 7.5 12.5C6.37 12.5 5.34 12.11 4.5 11.48V206.53C5.34 205.9 6.37 205.51 7.5 205.51C10.26 205.51 12.5 207.75 12.5 210.51C12.5 211.64 12.11 212.67 11.48 213.51H129.25C128.62 212.67 128.23 211.64 128.23 210.51C128.23 207.75 130.47 205.51 133.23 205.51V205.5Z" stroke="white" stroke-width="0.5" stroke-linejoin="round"/>
<path d="M7.5 10C8.88071 10 10 8.88071 10 7.5C10 6.11929 8.88071 5 7.5 5C6.11929 5 5 6.11929 5 7.5C5 8.88071 6.11929 10 7.5 10Z" fill="white"/>
<path d="M132.5 10C133.881 10 135 8.88071 135 7.5C135 6.11929 133.881 5 132.5 5C131.119 5 130 6.11929 130 7.5C130 8.88071 131.119 10 132.5 10Z" fill="white"/>
<path d="M133.5 213C134.881 213 136 211.881 136 210.5C136 209.119 134.881 208 133.5 208C132.119 208 131 209.119 131 210.5C131 211.881 132.119 213 133.5 213Z" fill="white"/>
<path d="M7.5 213C8.88071 213 10 211.881 10 210.5C10 209.119 8.88071 208 7.5 208C6.11929 208 5 209.119 5 210.5C5 211.881 6.11929 213 7.5 213Z" fill="white"/>
</svg>
